<svg width="35" height="37" viewBox="0 0 35 37" fill="none" xmlns="http://www.w3.org/2000/svg">
<path d="M32.8645 12.496C32.7959 12.1795 32.517 11.954 32.1947 11.954H29.4782C29.0994 11.954 28.7926 12.2625 28.7926 12.6434V19.502L25.8674 22.935L25.2352 20.7182C25.1508 20.4226 24.8821 20.219 24.5764 20.219L21.7687 20.2187C21.3899 20.2187 21.083 20.5272 21.083 20.9081V29.2451H19.137C18.7582 29.2451 18.4514 29.5536 18.4514 29.9345V35.6246C18.4514 36.0055 18.7582 36.314 19.137 36.314H31.2024C31.5812 36.314 31.888 36.0055 31.888 35.6246L31.8876 29.9342C31.8876 29.5533 31.5808 29.2448 31.202 29.2448H29.9178L34.4869 20.7407C34.5649 20.5955 34.5883 20.4269 34.5532 20.2658L32.8645 12.496ZM30.5166 34.9351H19.8224V30.6232H30.5176L30.5166 34.9351ZM28.3598 29.2444H22.4538V21.5964H24.0596L24.8552 24.3871L24.9031 24.5489C24.9744 24.7899 25.1711 24.973 25.4161 25.0261C25.6603 25.0795 25.9148 24.9935 26.0787 24.8032L29.9987 20.2047C30.105 20.0796 30.1634 19.9208 30.1634 19.7563V13.3321H31.6429L33.16 20.31L28.3598 29.2444Z" fill="#FACD35"/>
<path d="M4.65149 29.2447H3.36728C2.98847 29.2447 2.68165 29.5532 2.68165 29.9341V35.6245C2.68165 36.0054 2.98847 36.3139 3.36728 36.3139H15.4327C15.8115 36.3139 16.1183 36.0054 16.1183 35.6245L16.1179 29.9341C16.1179 29.5532 15.8111 29.2447 15.4323 29.2447H13.4866V20.9076C13.4866 20.5267 13.1798 20.2182 12.801 20.2182H9.99326C9.6872 20.2182 9.41884 20.4221 9.33441 20.7174L8.7023 22.9342L5.77705 19.5012L5.77667 12.643C5.77667 12.2621 5.46985 11.9536 5.09104 11.9536H2.37459C2.05233 11.9536 1.77378 12.1791 1.7048 12.4955L0.0158053 20.2656C-0.0192483 20.4266 0.00449742 20.5953 0.0821437 20.7405L4.65149 29.2447ZM14.7465 34.9355H4.05228V30.6235H14.7465V34.9355ZM2.92621 13.3326H4.40563V19.7568C4.40563 19.9213 4.46406 20.0805 4.57034 20.2052L8.35091 24.6419L8.48999 24.8037C8.65358 24.9944 8.908 25.0804 9.15262 25.0266C9.39763 24.9739 9.59437 24.7908 9.66562 24.5494L10.5092 21.5969L12.1153 21.5973V29.2453L6.20928 29.2449L1.40957 20.3105L2.92621 13.3326Z" fill="#FACD35"/>
<path d="M23.9393 13.7614C23.9981 13.4168 24.0275 13.0519 24.0275 12.6766V8.44841C24.0275 8.0675 23.7207 7.75899 23.3419 7.75899H21.832V4.41353C21.832 1.97992 19.863 0 17.4427 0C15.0225 0 13.0535 1.97992 13.0535 4.41353V7.75899H11.3521C10.9733 7.75899 10.6664 8.0675 10.6664 8.44841V12.6766C10.6664 13.0518 10.6962 13.4172 10.7535 13.7545C11.2763 17.0223 14.0493 19.3937 17.347 19.3937C20.6451 19.3937 23.4177 17.0223 23.9393 13.7613L23.9393 13.7614ZM14.4247 4.41348C14.4247 2.73978 15.779 1.3784 17.4431 1.3784C19.1076 1.3784 20.4614 2.74016 20.4614 4.41348V7.75894H14.4247V4.41348ZM17.3474 18.0156C14.7266 18.0156 12.5228 16.1315 12.1063 13.5289C12.0607 13.2609 12.0377 12.9744 12.0377 12.6765V9.13766H13.7259C13.7304 9.13766 13.7346 9.13918 13.7391 9.13918H21.1471C21.1516 9.13918 21.1558 9.13804 21.1603 9.13766H22.6571V12.6765C22.6571 12.9744 22.6337 13.2609 22.5873 13.5357C22.172 16.1315 19.9685 18.0156 17.3473 18.0156L17.3474 18.0156Z" fill="#FACD35"/>
<path d="M17.443 10.2888C16.3243 10.2888 15.4141 11.2041 15.4141 12.3293V13.992C15.4141 15.1169 16.3243 16.0322 17.443 16.0322C18.5617 16.0322 19.4719 15.1169 19.4719 13.992V12.3289C19.4723 11.204 18.5617 10.2888 17.443 10.2888ZM18.1011 13.992C18.1011 14.357 17.806 14.6537 17.443 14.6537C17.08 14.6537 16.7849 14.357 16.7849 13.992V12.3289C16.7849 11.9639 17.08 11.6668 17.443 11.6668C17.806 11.6668 18.1011 11.9639 18.1011 12.3289V13.992Z" fill="#FACD35"/>
</svg>
